<svg width="136" height="136" viewBox="0 0 136 136" fill="none" xmlns="http://www.w3.org/2000/svg">
<path d="M108 68C108 90.0914 90.0914 108 68 108C45.9086 108 28 90.0914 28 68C28 45.9086 45.9086 28 68 28C90.0914 28 108 45.9086 108 68Z" fill="#010432"/>
<path d="M65.6193 70.3807H48V65.6193H65.6193V48H70.3807V65.6193H88V70.3807H70.3807V88H65.6193V70.3807Z" fill="white"/>
<path d="M68 122C97.8234 122 122 97.8234 122 68C122 38.1766 97.8234 14 68 14C38.1766 14 14 38.1766 14 68C14 97.8234 38.1766 122 68 122Z" stroke="white" stroke-width="28"/>
</svg>
